<svg viewBox="0 0 700 570" xmlns="http://www.w3.org/2000/svg" font-family="system-ui, sans-serif">
  <!-- Title -->
  <text x="350" y="35" font-size="24" font-weight="bold" fill="#d1d5db" text-anchor="middle">App vs. Life: A Two-Layer Model</text>

  <!-- App Section -->
  <text x="15" y="175" font-size="28" font-weight="bold" fill="#d1d5db">App</text>

  <!-- Curly brace for App -->
  <path d="M 110,90 Q 95,90 90,105 L 90,150 Q 90,170 75,170 Q 90,170 90,190 L 90,235 Q 95,250 110,250"
        fill="none" stroke="#6b7280" stroke-width="2"/>

  <!-- App Interface Layer -->
  <rect x="120" y="90" width="540" height="70" rx="10" fill="#4ade80" fill-opacity="0.15" stroke="#4ade80" stroke-width="2"/>
  <text x="140" y="120" font-size="16" font-weight="600" fill="#4ade80">Interface layer</text>
  <text x="140" y="140" font-size="14" fill="#9ca3af">on-screen display</text>
  <text x="340" y="130" font-size="14" fill="#d1d5db">Screen UI</text>
  <line x1="420" y1="125" x2="470" y2="125" stroke="#9ca3af" stroke-width="2" stroke-dasharray="6,3"/>
  <polygon points="470,125 462,120 462,130" fill="#9ca3af"/>
  <text x="480" y="130" font-size="14" font-weight="600" fill="#f87171">Wrong output</text>

  <!-- App Inner Layer -->
  <rect x="120" y="180" width="540" height="70" rx="10" fill="#60a5fa" fill-opacity="0.15" stroke="#60a5fa" stroke-width="2"/>
  <text x="140" y="210" font-size="16" font-weight="600" fill="#60a5fa">Inner layer</text>
  <text x="140" y="230" font-size="14" fill="#9ca3af">binaries (bits)</text>
  <text x="480" y="220" font-size="14" font-weight="600" fill="#f87171">Code bugs</text>

  <!-- Arrow from Code bugs to Wrong output (drawn on top of boxes) -->
  <line x1="530" y1="205" x2="530" y2="145" stroke="#f97316" stroke-width="2"/>
  <polygon points="530,140 524,150 536,150" fill="#f97316"/>

  <!-- Life Section -->
  <text x="15" y="415" font-size="28" font-weight="bold" fill="#d1d5db">Life</text>

  <!-- Curly brace for Life -->
  <path d="M 110,330 Q 95,330 90,345 L 90,390 Q 90,410 75,410 Q 90,410 90,430 L 90,475 Q 95,490 110,490"
        fill="none" stroke="#6b7280" stroke-width="2"/>

  <!-- Life Interface Layer -->
  <rect x="120" y="330" width="540" height="70" rx="10" fill="#4ade80" fill-opacity="0.15" stroke="#4ade80" stroke-width="2"/>
  <text x="140" y="360" font-size="16" font-weight="600" fill="#4ade80">Interface layer</text>
  <text x="140" y="380" font-size="14" fill="#9ca3af">bodily senses</text>
  <text x="320" y="370" font-size="14" fill="#d1d5db">Physical senses</text>
  <line x1="430" y1="365" x2="480" y2="365" stroke="#9ca3af" stroke-width="2" stroke-dasharray="6,3"/>
  <polygon points="480,365 472,360 472,370" fill="#9ca3af"/>
  <text x="490" y="370" font-size="14" font-weight="600" fill="#f87171">Pain &amp; Suffering</text>

  <!-- Life Inner Layer -->
  <rect x="120" y="420" width="540" height="70" rx="10" fill="#60a5fa" fill-opacity="0.15" stroke="#60a5fa" stroke-width="2"/>
  <text x="140" y="450" font-size="16" font-weight="600" fill="#60a5fa">Inner layer</text>
  <text x="140" y="470" font-size="14" fill="#9ca3af">energy (quantums)</text>
  <text x="480" y="460" font-size="14" font-weight="600" fill="#f87171">Soul bugs</text>

  <!-- Arrow from Soul bugs to Pain (drawn on top of boxes) -->
  <line x1="510" y1="445" x2="510" y2="385" stroke="#f97316" stroke-width="2"/>
  <polygon points="510,380 504,390 516,390" fill="#f97316"/>
</svg>
